<svg width="26" height="40" viewBox="0 0 26 40" fill="none" xmlns="http://www.w3.org/2000/svg">
<path fill-rule="evenodd" clip-rule="evenodd" d="M12.8016 0L18.2285 6.63871C21.1601 10.2249 20.6306 15.5084 17.0456 18.4416C17.1398 17.6132 16.8945 16.7793 16.3652 16.1351C16.8943 16.779 17.1399 17.6117 17.0456 18.4416L13.0921 21.677C12.6473 22.0411 12.5825 22.6998 12.9478 23.1445L16.862 27.9085C17.0446 28.1308 17.3722 28.161 17.592 27.976L23.1979 23.2571C26.024 20.8782 26.4155 16.6538 24.0752 13.7909L12.8016 0Z" fill="url(#paint0_linear_1489_5075)"/>
<path d="M17.0456 18.4416C20.6306 15.5084 21.1601 10.2249 18.2285 6.63871L12.8016 0C8.66822 2.85714 9.46 7.73061 12.1479 11.0021L16.3652 16.1351C16.8945 16.7793 17.1398 17.6132 17.0456 18.4416Z" fill="url(#paint1_linear_1489_5075)"/>
<path fill-rule="evenodd" clip-rule="evenodd" d="M12.8016 40L7.39303 33.3838C4.45843 29.7939 4.97906 24.507 8.5575 21.5584C8.46335 22.3868 8.70862 23.2207 9.23788 23.8649C8.70881 23.221 8.46318 22.3883 8.5575 21.5584L12.511 18.323C12.9558 17.9589 13.0206 17.3002 12.6553 16.8555L8.74111 12.0915C8.55853 11.8692 8.23092 11.839 8.01111 12.024L2.40517 16.7429C-0.42093 19.1218 -0.812397 23.3462 1.52794 26.2091L12.8016 40Z" fill="url(#paint2_linear_1489_5075)"/>
<path d="M8.5575 21.5584C4.97906 24.507 4.45843 29.7939 7.39303 33.3838L12.8016 40C16.9349 37.1429 16.1431 32.2694 13.4552 28.998L9.23788 23.8649C8.70862 23.2207 8.46335 22.3868 8.5575 21.5584Z" fill="url(#paint3_linear_1489_5075)"/>
<defs>
<linearGradient id="paint0_linear_1489_5075" x1="12.8016" y1="0" x2="12.8016" y2="40" gradientUnits="userSpaceOnUse">
<stop stop-color="#3408BB"/>
<stop offset="1" stop-color="#2B4C83"/>
</linearGradient>
<linearGradient id="paint1_linear_1489_5075" x1="12.8016" y1="0" x2="12.8016" y2="40" gradientUnits="userSpaceOnUse">
<stop stop-color="#123878" stop-opacity="0.6"/>
<stop offset="1" stop-color="#D0D0D0"/>
</linearGradient>
<linearGradient id="paint2_linear_1489_5075" x1="12.8016" y1="0" x2="12.8016" y2="40" gradientUnits="userSpaceOnUse">
<stop stop-color="#3408BB"/>
<stop offset="1" stop-color="#2B4C83"/>
</linearGradient>
<linearGradient id="paint3_linear_1489_5075" x1="12.8016" y1="0" x2="12.8016" y2="40" gradientUnits="userSpaceOnUse">
<stop stop-color="#123878" stop-opacity="0.6"/>
<stop offset="1" stop-color="#D0D0D0"/>
</linearGradient>
</defs>
</svg>
